<svg width="300" height="180" viewBox="0 0 300 180" fill="none" xmlns="http://www.w3.org/2000/svg">
<g clip-path="url(#clip0_2_208)">
<path d="M300 0H0V180H300V0Z" fill="url(#paint0_linear_2_208)"/>
<path d="M131.038 93.781L131.338 181.181H256.338V135.281L131.038 93.781Z" fill="url(#paint1_linear_2_208)"/>
<path d="M255.538 135.581L301.938 110.881V181.181H255.538V135.581Z" fill="#484FCB"/>
<path d="M218.238 50.381L302.738 81.181V111.581L256.738 135.681L130.638 93.781L218.238 50.381Z" fill="url(#paint2_linear_2_208)"/>
<path d="M151.338 121.581V180.681H236.238V149.481L151.338 121.581Z" fill="#611FEE"/>
<path d="M163.238 142.481L236.038 167.281L163.238 206.081L85.738 178.481L163.238 142.481Z" fill="url(#paint3_linear_2_208)"/>
<path d="M163.238 124.881L236.038 149.681L163.238 188.481L85.738 160.881L163.238 124.881Z" fill="url(#paint4_linear_2_208)"/>
<path d="M236.038 105.981C252.054 105.981 265.038 100.385 265.038 93.481C265.038 86.5774 252.054 80.981 236.038 80.981C220.022 80.981 207.038 86.5774 207.038 93.481C207.038 100.385 220.022 105.981 236.038 105.981Z" fill="url(#paint5_linear_2_208)"/>
<path d="M215.085 36.632C215.085 36.632 228.585 33.532 239.885 36.632C251.185 39.732 260.485 49.132 260.485 49.132C260.485 49.132 264.185 71.732 258.585 83.532C252.985 95.332 238.185 96.232 238.185 96.232C238.185 96.232 223.385 89.432 217.585 74.532C211.785 59.632 215.085 36.632 215.085 36.632Z" fill="url(#paint6_linear_2_208)"/>
<path d="M210.885 39.732C210.885 39.732 224.385 36.632 235.685 39.732C246.985 42.832 256.285 52.232 256.285 52.232C256.285 52.232 259.985 74.832 254.385 86.632C248.785 98.432 233.985 99.332 233.985 99.332C233.985 99.332 219.185 92.532 213.385 77.632C207.585 62.732 210.885 39.732 210.885 39.732Z" fill="url(#paint7_linear_2_208)"/>
<path d="M234.585 81.232C231.485 81.232 228.385 79.932 226.185 77.732C223.785 75.332 222.285 72.232 221.885 68.832C221.385 64.932 222.385 61.032 224.785 57.932C226.685 55.432 229.485 53.832 232.585 53.432C232.985 53.332 233.485 53.332 233.885 53.332C236.385 53.332 238.885 54.132 240.885 55.732C242.985 57.332 244.585 59.432 245.585 61.932L233.885 67.932L227.585 64.332L233.885 75.232L246.085 63.5321C246.285 64.3321 246.485 65.132 246.585 65.932C247.085 69.832 246.085 73.732 243.685 76.832C241.785 79.332 238.985 80.932 235.885 81.332C235.485 81.232 234.985 81.232 234.585 81.232Z" fill="#2F97FC"/>
<path d="M151.338 121.581L91.538 148.981L102.038 153.281L151.238 130.381V121.581H151.338Z" fill="url(#paint8_linear_2_208)"/>
</g>
<defs>
<linearGradient id="paint0_linear_2_208" x1="180.246" y1="150.76" x2="152.207" y2="-5.62095" gradientUnits="userSpaceOnUse">
<stop stop-color="#04428E"/>
<stop offset="1" stop-color="#347ED1"/>
</linearGradient>
<linearGradient id="paint1_linear_2_208" x1="145.386" y1="126.448" x2="204.024" y2="206.18" gradientUnits="userSpaceOnUse">
<stop stop-color="#64B9FF"/>
<stop offset="1" stop-color="#624CFE"/>
</linearGradient>
<linearGradient id="paint2_linear_2_208" x1="156.705" y1="82.893" x2="278.026" y2="144.479" gradientUnits="userSpaceOnUse">
<stop stop-color="#26A1FE"/>
<stop offset="1" stop-color="#5458E8"/>
</linearGradient>
<linearGradient id="paint3_linear_2_208" x1="191.006" y1="155.152" x2="174.234" y2="210.029" gradientUnits="userSpaceOnUse">
<stop stop-color="#668EFF"/>
<stop offset="1" stop-color="#6793FF" stop-opacity="0"/>
</linearGradient>
<linearGradient id="paint4_linear_2_208" x1="192.584" y1="136.477" x2="176.603" y2="189.276" gradientUnits="userSpaceOnUse">
<stop stop-color="#5344F1"/>
<stop offset="1" stop-color="#75C1FE"/>
</linearGradient>
<linearGradient id="paint5_linear_2_208" x1="221.802" y1="87.5172" x2="231.821" y2="110.26" gradientUnits="userSpaceOnUse">
<stop stop-color="#1E71FE"/>
<stop offset="1" stop-color="#1185FE"/>
</linearGradient>
<linearGradient id="paint6_linear_2_208" x1="231.963" y1="38.5133" x2="255.297" y2="84.9625" gradientUnits="userSpaceOnUse">
<stop stop-color="#2EA9FB"/>
<stop offset="1" stop-color="#3886F7"/>
</linearGradient>
<linearGradient id="paint7_linear_2_208" x1="233.928" y1="38.5668" x2="233.928" y2="99.63" gradientUnits="userSpaceOnUse">
<stop stop-color="#6BE8FF"/>
<stop offset="1" stop-color="#43B4FE"/>
</linearGradient>
<linearGradient id="paint8_linear_2_208" x1="145.348" y1="123.96" x2="128.125" y2="164.91" gradientUnits="userSpaceOnUse">
<stop stop-color="#5BC9FF"/>
<stop offset="1" stop-color="#5BCBFF" stop-opacity="0"/>
</linearGradient>
<clipPath id="clip0_2_208">
<rect width="300" height="180" fill="white"/>
</clipPath>
</defs>
</svg>
