<svg width="280" height="150" viewBox="0 0 280 150" fill="none" xmlns="http://www.w3.org/2000/svg">
<mask id="mask0_8_83" style="mask-type:alpha" maskUnits="userSpaceOnUse" x="0" y="0" width="280" height="150">
<path d="M8 0H272C276.4 0 280 3.6 280 8V142C280 146.4 276.4 150 272 150H8C3.6 150 0 146.4 0 142V8C0 3.6 3.6 0 8 0Z" fill="url(#paint0_linear_8_83)"/>
</mask>
<g mask="url(#mask0_8_83)">
<path d="M7.99976 0H272C276.4 0 280 3.6 280 8V142C280 146.4 276.4 150 272 150H7.99976C3.59976 150 -0.000244141 146.4 -0.000244141 142V8C-0.000244141 3.6 3.59976 0 7.99976 0Z" fill="url(#paint1_linear_8_83)"/>
<path opacity="0.11" d="M140 43L245 96V150H140V43Z" fill="#FD2A00"/>
<path opacity="0.2" d="M245 -10.6L140 88.1V150H245V-10.6Z" fill="#FD432E"/>
<path opacity="0.15" d="M-17.4001 6.3L-1.20014 -27L210 75.9L193.8 109.2L-17.4001 6.3Z" fill="url(#paint2_linear_8_83)"/>
<path opacity="0.15" d="M-29.2002 37.5L-23.5002 25.8L85.2998 78.8L79.5998 90.5L-29.2002 37.5Z" fill="url(#paint3_linear_8_83)"/>
<g opacity="0.15">
<path opacity="0.15" d="M285.134 101.425L284.963 100.956L284.634 101.076V101.425H285.134ZM285.134 112.446H284.634V112.797L284.965 112.916L285.134 112.446ZM292 114.921H292.5V114.569L292.169 114.45L292 114.921ZM292 118.498L291.821 118.965L292.5 119.224V118.498H292ZM265.695 108.453H265.195V108.797L265.516 108.92L265.695 108.453ZM265.695 105.418L265.516 104.951L265.195 105.074V105.418H265.695ZM292 95.3548H292.5V94.6282L291.821 94.8878L292 95.3548ZM292 98.9138L292.171 99.3834L292.5 99.2634V98.9138H292ZM282.28 111.398L282.109 111.868L282.78 112.111V111.398H282.28ZM282.28 102.455H282.78V101.741L282.109 101.985L282.28 102.455ZM269.977 106.935L269.805 106.466L268.513 106.936L269.806 107.405L269.977 106.935ZM284.634 101.425V112.446H285.634V101.425H284.634ZM284.965 112.916L291.83 115.391L292.169 114.45L285.304 111.975L284.965 112.916ZM291.5 114.921V118.498H292.5V114.921H291.5ZM292.178 118.031L265.873 107.986L265.516 108.92L291.821 118.965L292.178 118.031ZM266.195 108.453V105.418H265.195V108.453H266.195ZM265.873 105.885L292.178 95.8218L291.821 94.8878L265.516 104.951L265.873 105.885ZM291.5 95.3548V98.9138H292.5V95.3548H291.5ZM291.828 98.4443L284.963 100.956L285.306 101.895L292.171 99.3834L291.828 98.4443ZM282.78 111.398V102.455H281.78V111.398H282.78ZM282.109 101.985L269.805 106.466L270.148 107.405L282.451 102.925L282.109 101.985ZM269.806 107.405L282.109 111.868L282.45 110.928L270.147 106.465L269.806 107.405ZM281.702 88.345H281.202V88.845H281.702V88.345ZM292 88.345H292.5V87.845H292V88.345ZM292 91.8138V92.3138H292.5V91.8138H292ZM265.695 91.8138H265.195V92.3138H265.695V91.8138ZM267.899 75.3553L268.27 75.6905L268.271 75.6891L267.899 75.3553ZM279.642 75.3011L280.021 74.9742L280.02 74.974L279.642 75.3011ZM278.865 88.345V88.845H279.365V88.345H278.865ZM277.564 77.8484L277.94 77.5185L277.938 77.516L277.564 77.8484ZM268.549 81.9134L268.049 81.9029V81.9134H268.549ZM268.549 88.345H268.049V88.845H268.549V88.345ZM281.702 88.845H292V87.845H281.702V88.845ZM291.5 88.345V91.8138H292.5V88.345H291.5ZM292 91.3138H265.695V92.3138H292V91.3138ZM266.195 91.8138V82.1121H265.195V91.8138H266.195ZM266.195 82.1121C266.195 79.3177 266.907 77.1988 268.27 75.6905L267.528 75.02C265.952 76.7636 265.195 79.1494 265.195 82.1121H266.195ZM268.271 75.6891C269.636 74.1681 271.44 73.3982 273.734 73.3982V72.3982C271.187 72.3982 269.101 73.2663 267.527 75.0214L268.271 75.6891ZM273.734 73.3982C276.175 73.3982 277.993 74.1586 279.264 75.6281L280.02 74.974C278.521 73.2398 276.4 72.3982 273.734 72.3982V73.3982ZM279.264 75.6279C280.531 77.0954 281.202 79.2439 281.202 82.1482H282.202C282.202 79.1027 281.499 76.6864 280.021 74.9742L279.264 75.6279ZM281.202 82.1482V88.345H282.202V82.1482H281.202ZM279.365 88.345V82.1121H278.365V88.345H279.365ZM279.365 82.1121C279.365 80.1854 278.915 78.6288 277.94 77.5185L277.189 78.1783C277.948 79.0433 278.365 80.3291 278.365 82.1121H279.365ZM277.938 77.516C276.941 76.3963 275.525 75.867 273.771 75.867V76.867C275.316 76.867 276.429 77.3253 277.191 78.1809L277.938 77.516ZM273.771 75.867C272.09 75.867 270.699 76.4019 269.65 77.5038L270.375 78.193C271.206 77.3197 272.319 76.867 273.771 76.867V75.867ZM269.65 77.5038C268.604 78.6038 268.087 80.09 268.049 81.9029L269.049 81.9238C269.083 80.292 269.542 79.0683 270.375 78.193L269.65 77.5038ZM268.049 81.9134V88.345H269.049V81.9134H268.049ZM268.549 88.845H278.865V87.845H268.549V88.845ZM281.702 65.0032H281.202V65.5032H281.702V65.0032ZM292 65.0032H292.5V64.5032H292V65.0032ZM292 68.472V68.972H292.5V68.472H292ZM265.695 68.472H265.195V68.972H265.695V68.472ZM267.899 52.0135L268.27 52.3487L268.271 52.3473L267.899 52.0135ZM279.642 51.9593L280.021 51.6324L280.02 51.6322L279.642 51.9593ZM278.865 65.0032V65.5032H279.365V65.0032H278.865ZM277.564 54.5066L277.94 54.1767L277.938 54.1742L277.564 54.5066ZM268.549 58.5716L268.049 58.5611V58.5716H268.549ZM268.549 65.0032H268.049V65.5032H268.549V65.0032ZM281.702 65.5032H292V64.5032H281.702V65.5032ZM291.5 65.0032V68.472H292.5V65.0032H291.5ZM292 67.972H265.695V68.972H292V67.972ZM266.195 68.472V58.7703H265.195V68.472H266.195ZM266.195 58.7703C266.195 55.9759 266.907 53.857 268.27 52.3487L267.528 51.6782C265.952 53.4218 265.195 55.8076 265.195 58.7703H266.195ZM268.271 52.3473C269.636 50.8263 271.44 50.0564 273.734 50.0564V49.0564C271.187 49.0564 269.101 49.9246 267.527 51.6796L268.271 52.3473ZM273.734 50.0564C276.175 50.0564 277.993 50.8168 279.264 52.2863L280.02 51.6322C278.521 49.898 276.4 49.0564 273.734 49.0564V50.0564ZM279.264 52.2861C280.531 53.7536 281.202 55.9021 281.202 58.8064H282.202C282.202 55.7609 281.499 53.3446 280.021 51.6324L279.264 52.2861ZM281.202 58.8064V65.0032H282.202V58.8064H281.202ZM279.365 65.0032V58.7703H278.365V65.0032H279.365ZM279.365 58.7703C279.365 56.8436 278.915 55.287 277.94 54.1767L277.189 54.8365C277.948 55.7015 278.365 56.9873 278.365 58.7703H279.365ZM277.938 54.1742C276.941 53.0545 275.525 52.5252 273.771 52.5252V53.5252C275.316 53.5252 276.429 53.9835 277.191 54.8391L277.938 54.1742ZM273.771 52.5252C272.09 52.5252 270.699 53.0601 269.65 54.162L270.375 54.8512C271.206 53.9779 272.319 53.5252 273.771 53.5252V52.5252ZM269.65 54.162C268.604 55.262 268.087 56.7482 268.049 58.5611L269.049 58.5821C269.083 56.9502 269.542 55.7265 270.375 54.8512L269.65 54.162ZM268.049 58.5716V65.0032H269.049V58.5716H268.049ZM268.549 65.5032H278.865V64.5032H268.549V65.5032ZM265.695 26.6121V26.1121H265.195V26.6121H265.695ZM283.581 26.6121L283.583 26.1121H283.581V26.6121ZM289.669 28.9607L289.318 29.317L289.32 29.3184L289.669 28.9607ZM292.325 35.2478L292.824 35.2282L292.824 35.2199L292.823 35.2116L292.325 35.2478ZM292.361 36.1692H292.861V36.1594L292.86 36.1496L292.361 36.1692ZM290.03 43.0525L290.4 43.3887L290.03 43.0525ZM283.617 45.6541V46.1541L283.621 46.1541L283.617 45.6541ZM265.695 45.6541H265.195V46.1541H265.695V45.6541ZM265.695 42.2215V41.7215H265.195V42.2215H265.695ZM287.953 40.6497L288.304 41.0053L288.306 41.0032L287.953 40.6497ZM287.953 31.6707L287.599 32.0242L287.601 32.0263L287.953 31.6707ZM265.695 30.0989H265.195V30.5989H265.695V30.0989ZM265.695 27.1121H283.581V26.1121H265.695V27.1121ZM283.578 27.1121C285.946 27.1236 287.845 27.8661 289.318 29.317L290.02 28.6045C288.338 26.9479 286.177 26.1247 283.583 26.1121L283.578 27.1121ZM289.32 29.3184C290.793 30.758 291.64 32.73 291.826 35.2841L292.823 35.2116C292.624 32.4662 291.701 30.2468 290.018 28.6031L289.32 29.3184ZM291.825 35.2674L291.861 36.1888L292.86 36.1496L292.824 35.2282L291.825 35.2674ZM291.861 36.1692C291.861 38.9553 291.111 41.1192 289.66 42.7163L290.4 43.3887C292.057 41.5653 292.861 39.1403 292.861 36.1692H291.861ZM289.66 42.7163C288.217 44.305 286.222 45.131 283.612 45.1541L283.621 46.1541C286.455 46.129 288.736 45.2206 290.4 43.3887L289.66 42.7163ZM283.617 45.1541H265.695V46.1541H283.617V45.1541ZM266.195 45.6541V42.2215H265.195V45.6541H266.195ZM265.695 42.7215H283.508V41.7215H265.695V42.7215ZM283.508 42.7215C285.505 42.7215 287.127 42.1694 288.304 41.0053L287.601 40.2941C286.659 41.2257 285.318 41.7215 283.508 41.7215V42.7215ZM288.306 41.0032C289.474 39.8353 290.024 38.1984 290.024 36.1692H289.024C289.024 38.0183 288.527 39.3684 287.599 40.2961L288.306 41.0032ZM290.024 36.1692C290.024 34.1184 289.475 32.4729 288.304 31.3151L287.601 32.0263C288.526 32.9401 289.024 34.2936 289.024 36.1692H290.024ZM288.306 31.3171C287.14 30.1509 285.523 29.5989 283.526 29.5989V30.5989C285.336 30.5989 286.67 31.0948 287.599 32.0242L288.306 31.3171ZM283.526 29.5989H265.695V30.5989H283.526V29.5989ZM266.195 30.0989V26.6121H265.195V30.0989H266.195ZM292 17.4163H292.5V16.9163H292V17.4163ZM292 20.885V21.385H292.5V20.885H292ZM265.695 20.885H265.195V21.385H265.695V20.885ZM265.695 17.4163V16.9163H265.195V17.4163H265.695ZM291.5 17.4163V20.885H292.5V17.4163H291.5ZM292 20.385H265.695V21.385H292V20.385ZM266.195 20.885V17.4163H265.195V20.885H266.195ZM265.695 17.9163H292V16.9163H265.695V17.9163Z" fill="white"/>
</g>
</g>
<defs>
<linearGradient id="paint0_linear_8_83" x1="271.963" y1="15.095" x2="142.475" y2="220.079" gradientUnits="userSpaceOnUse">
<stop stop-color="#FCBC42"/>
<stop offset="1" stop-color="#FF6D41"/>
</linearGradient>
<linearGradient id="paint1_linear_8_83" x1="271.962" y1="15.095" x2="142.474" y2="220.079" gradientUnits="userSpaceOnUse">
<stop stop-color="#FCBC42"/>
<stop offset="1" stop-color="#FF6D41"/>
</linearGradient>
<linearGradient id="paint2_linear_8_83" x1="-9.38081" y1="-10.4045" x2="201.884" y2="92.5255" gradientUnits="userSpaceOnUse">
<stop stop-color="white"/>
<stop offset="1" stop-color="white" stop-opacity="0"/>
</linearGradient>
<linearGradient id="paint3_linear_8_83" x1="-26.3785" y1="31.6135" x2="82.4005" y2="84.6115" gradientUnits="userSpaceOnUse">
<stop stop-color="white"/>
<stop offset="1" stop-color="white" stop-opacity="0"/>
</linearGradient>
</defs>
</svg>
