<svg width="280" height="150" viewBox="0 0 280 150" fill="none" xmlns="http://www.w3.org/2000/svg">
<mask id="mask0_8_85" style="mask-type:alpha" maskUnits="userSpaceOnUse" x="0" y="0" width="280" height="150">
<path d="M8 0H272C276.4 0 280 3.6 280 8V142C280 146.4 276.4 150 272 150H8C3.6 150 0 146.4 0 142V8C0 3.6 3.6 0 8 0Z" fill="url(#paint0_linear_8_85)"/>
</mask>
<g mask="url(#mask0_8_85)">
<path d="M7.99976 0H272C276.4 0 280 3.6 280 8V142C280 146.4 276.4 150 272 150H7.99976C3.59976 150 -0.000244141 146.4 -0.000244141 142V8C-0.000244141 3.6 3.59976 0 7.99976 0Z" fill="url(#paint1_linear_8_85)"/>
<path opacity="0.52" d="M140 43L245 96V150H140V43Z" fill="#484D6E"/>
<path opacity="0.36" d="M245 -10.6L140 88.1V150H245V-10.6Z" fill="#373F61"/>
<path opacity="0.15" d="M-17.4001 6.3L-1.20014 -27L210 75.9L193.8 109.2L-17.4001 6.3Z" fill="url(#paint2_linear_8_85)"/>
<path opacity="0.15" d="M-29.2002 37.5L-23.5002 25.8L85.2998 78.8L79.5998 90.5L-29.2002 37.5Z" fill="url(#paint3_linear_8_85)"/>
<g opacity="0.15">
<path opacity="0.15" d="M285.134 104.425L284.963 103.956L284.634 104.076V104.425H285.134ZM285.134 115.446H284.634V115.797L284.965 115.916L285.134 115.446ZM292 117.921H292.5V117.569L292.169 117.45L292 117.921ZM292 121.498L291.821 121.965L292.5 122.224V121.498H292ZM265.695 111.453H265.195V111.797L265.516 111.92L265.695 111.453ZM265.695 108.418L265.516 107.951L265.195 108.074V108.418H265.695ZM292 98.3548H292.5V97.6282L291.821 97.8878L292 98.3548ZM292 101.914L292.171 102.383L292.5 102.263V101.914H292ZM282.28 114.398L282.109 114.868L282.78 115.111V114.398H282.28ZM282.28 105.455H282.78V104.741L282.109 104.985L282.28 105.455ZM269.977 109.935L269.805 109.466L268.513 109.936L269.806 110.405L269.977 109.935ZM284.634 104.425V115.446H285.634V104.425H284.634ZM284.965 115.916L291.83 118.391L292.169 117.45L285.304 114.975L284.965 115.916ZM291.5 117.921V121.498H292.5V117.921H291.5ZM292.178 121.031L265.873 110.986L265.516 111.92L291.821 121.965L292.178 121.031ZM266.195 111.453V108.418H265.195V111.453H266.195ZM265.873 108.885L292.178 98.8218L291.821 97.8878L265.516 107.951L265.873 108.885ZM291.5 98.3548V101.914H292.5V98.3548H291.5ZM291.828 101.444L284.963 103.956L285.306 104.895L292.171 102.383L291.828 101.444ZM282.78 114.398V105.455H281.78V114.398H282.78ZM282.109 104.985L269.805 109.466L270.148 110.405L282.451 105.925L282.109 104.985ZM269.806 110.405L282.109 114.868L282.45 113.928L270.147 109.465L269.806 110.405ZM281.702 91.345H281.202V91.845H281.702V91.345ZM292 91.345H292.5V90.845H292V91.345ZM292 94.8138V95.3138H292.5V94.8138H292ZM265.695 94.8138H265.195V95.3138H265.695V94.8138ZM267.899 78.3553L268.27 78.6905L268.271 78.6891L267.899 78.3553ZM279.642 78.3011L280.021 77.9742L280.02 77.974L279.642 78.3011ZM278.865 91.345V91.845H279.365V91.345H278.865ZM277.564 80.8484L277.94 80.5185L277.938 80.516L277.564 80.8484ZM268.549 84.9134L268.049 84.9029V84.9134H268.549ZM268.549 91.345H268.049V91.845H268.549V91.345ZM281.702 91.845H292V90.845H281.702V91.845ZM291.5 91.345V94.8138H292.5V91.345H291.5ZM292 94.3138H265.695V95.3138H292V94.3138ZM266.195 94.8138V85.1121H265.195V94.8138H266.195ZM266.195 85.1121C266.195 82.3177 266.907 80.1988 268.27 78.6905L267.528 78.02C265.952 79.7636 265.195 82.1494 265.195 85.1121H266.195ZM268.271 78.6891C269.636 77.1681 271.44 76.3982 273.734 76.3982V75.3982C271.187 75.3982 269.101 76.2663 267.527 78.0214L268.271 78.6891ZM273.734 76.3982C276.175 76.3982 277.993 77.1586 279.264 78.6281L280.02 77.974C278.521 76.2398 276.4 75.3982 273.734 75.3982V76.3982ZM279.264 78.6279C280.531 80.0954 281.202 82.2439 281.202 85.1482H282.202C282.202 82.1027 281.499 79.6864 280.021 77.9742L279.264 78.6279ZM281.202 85.1482V91.345H282.202V85.1482H281.202ZM279.365 91.345V85.1121H278.365V91.345H279.365ZM279.365 85.1121C279.365 83.1854 278.915 81.6288 277.94 80.5185L277.189 81.1783C277.948 82.0433 278.365 83.3291 278.365 85.1121H279.365ZM277.938 80.516C276.941 79.3963 275.525 78.867 273.771 78.867V79.867C275.316 79.867 276.429 80.3253 277.191 81.1809L277.938 80.516ZM273.771 78.867C272.09 78.867 270.699 79.4019 269.65 80.5038L270.375 81.193C271.206 80.3197 272.319 79.867 273.771 79.867V78.867ZM269.65 80.5038C268.604 81.6038 268.087 83.09 268.049 84.9029L269.049 84.9238C269.083 83.292 269.542 82.0683 270.375 81.193L269.65 80.5038ZM268.049 84.9134V91.345H269.049V84.9134H268.049ZM268.549 91.845H278.865V90.845H268.549V91.845ZM281.702 68.0032H281.202V68.5032H281.702V68.0032ZM292 68.0032H292.5V67.5032H292V68.0032ZM292 71.472V71.972H292.5V71.472H292ZM265.695 71.472H265.195V71.972H265.695V71.472ZM267.899 55.0135L268.27 55.3487L268.271 55.3473L267.899 55.0135ZM279.642 54.9593L280.021 54.6324L280.02 54.6322L279.642 54.9593ZM278.865 68.0032V68.5032H279.365V68.0032H278.865ZM277.564 57.5066L277.94 57.1767L277.938 57.1742L277.564 57.5066ZM268.549 61.5716L268.049 61.5611V61.5716H268.549ZM268.549 68.0032H268.049V68.5032H268.549V68.0032ZM281.702 68.5032H292V67.5032H281.702V68.5032ZM291.5 68.0032V71.472H292.5V68.0032H291.5ZM292 70.972H265.695V71.972H292V70.972ZM266.195 71.472V61.7703H265.195V71.472H266.195ZM266.195 61.7703C266.195 58.9759 266.907 56.857 268.27 55.3487L267.528 54.6782C265.952 56.4218 265.195 58.8076 265.195 61.7703H266.195ZM268.271 55.3473C269.636 53.8263 271.44 53.0564 273.734 53.0564V52.0564C271.187 52.0564 269.101 52.9246 267.527 54.6796L268.271 55.3473ZM273.734 53.0564C276.175 53.0564 277.993 53.8168 279.264 55.2863L280.02 54.6322C278.521 52.898 276.4 52.0564 273.734 52.0564V53.0564ZM279.264 55.2861C280.531 56.7536 281.202 58.9021 281.202 61.8064H282.202C282.202 58.7609 281.499 56.3446 280.021 54.6324L279.264 55.2861ZM281.202 61.8064V68.0032H282.202V61.8064H281.202ZM279.365 68.0032V61.7703H278.365V68.0032H279.365ZM279.365 61.7703C279.365 59.8436 278.915 58.287 277.94 57.1767L277.189 57.8365C277.948 58.7015 278.365 59.9873 278.365 61.7703H279.365ZM277.938 57.1742C276.941 56.0545 275.525 55.5252 273.771 55.5252V56.5252C275.316 56.5252 276.429 56.9835 277.191 57.8391L277.938 57.1742ZM273.771 55.5252C272.09 55.5252 270.699 56.0601 269.65 57.162L270.375 57.8512C271.206 56.9779 272.319 56.5252 273.771 56.5252V55.5252ZM269.65 57.162C268.604 58.262 268.087 59.7482 268.049 61.5611L269.049 61.5821C269.083 59.9502 269.542 58.7265 270.375 57.8512L269.65 57.162ZM268.049 61.5716V68.0032H269.049V61.5716H268.049ZM268.549 68.5032H278.865V67.5032H268.549V68.5032ZM265.695 29.6121V29.1121H265.195V29.6121H265.695ZM283.581 29.6121L283.583 29.1121H283.581V29.6121ZM289.669 31.9607L289.318 32.317L289.32 32.3184L289.669 31.9607ZM292.325 38.2478L292.824 38.2282L292.824 38.2199L292.823 38.2116L292.325 38.2478ZM292.361 39.1692H292.861V39.1594L292.86 39.1496L292.361 39.1692ZM290.03 46.0525L290.4 46.3887L290.03 46.0525ZM283.617 48.6541V49.1541L283.621 49.1541L283.617 48.6541ZM265.695 48.6541H265.195V49.1541H265.695V48.6541ZM265.695 45.2215V44.7215H265.195V45.2215H265.695ZM287.953 43.6497L288.304 44.0053L288.306 44.0032L287.953 43.6497ZM287.953 34.6707L287.599 35.0242L287.601 35.0263L287.953 34.6707ZM265.695 33.0989H265.195V33.5989H265.695V33.0989ZM265.695 30.1121H283.581V29.1121H265.695V30.1121ZM283.578 30.1121C285.946 30.1236 287.845 30.8661 289.318 32.317L290.02 31.6045C288.338 29.9479 286.177 29.1247 283.583 29.1121L283.578 30.1121ZM289.32 32.3184C290.793 33.758 291.64 35.73 291.826 38.2841L292.823 38.2116C292.624 35.4662 291.701 33.2468 290.018 31.6031L289.32 32.3184ZM291.825 38.2674L291.861 39.1888L292.86 39.1496L292.824 38.2282L291.825 38.2674ZM291.861 39.1692C291.861 41.9553 291.111 44.1192 289.66 45.7163L290.4 46.3887C292.057 44.5653 292.861 42.1403 292.861 39.1692H291.861ZM289.66 45.7163C288.217 47.305 286.222 48.131 283.612 48.1541L283.621 49.1541C286.455 49.129 288.736 48.2206 290.4 46.3887L289.66 45.7163ZM283.617 48.1541H265.695V49.1541H283.617V48.1541ZM266.195 48.6541V45.2215H265.195V48.6541H266.195ZM265.695 45.7215H283.508V44.7215H265.695V45.7215ZM283.508 45.7215C285.505 45.7215 287.127 45.1694 288.304 44.0053L287.601 43.2941C286.659 44.2257 285.318 44.7215 283.508 44.7215V45.7215ZM288.306 44.0032C289.474 42.8353 290.024 41.1984 290.024 39.1692H289.024C289.024 41.0183 288.527 42.3684 287.599 43.2961L288.306 44.0032ZM290.024 39.1692C290.024 37.1184 289.475 35.4729 288.304 34.3151L287.601 35.0263C288.526 35.9401 289.024 37.2936 289.024 39.1692H290.024ZM288.306 34.3171C287.14 33.1509 285.523 32.5989 283.526 32.5989V33.5989C285.336 33.5989 286.67 34.0948 287.599 35.0242L288.306 34.3171ZM283.526 32.5989H265.695V33.5989H283.526V32.5989ZM266.195 33.0989V29.6121H265.195V33.0989H266.195ZM292 20.4163H292.5V19.9163H292V20.4163ZM292 23.885V24.385H292.5V23.885H292ZM265.695 23.885H265.195V24.385H265.695V23.885ZM265.695 20.4163V19.9163H265.195V20.4163H265.695ZM291.5 20.4163V23.885H292.5V20.4163H291.5ZM292 23.385H265.695V24.385H292V23.385ZM266.195 23.885V20.4163H265.195V23.885H266.195ZM265.695 20.9163H292V19.9163H265.695V20.9163Z" fill="white"/>
</g>
</g>
<defs>
<linearGradient id="paint0_linear_8_85" x1="198.267" y1="34.43" x2="134.987" y2="188.076" gradientUnits="userSpaceOnUse">
<stop stop-color="#656C94"/>
<stop offset="1" stop-color="#2A3037"/>
</linearGradient>
<linearGradient id="paint1_linear_8_85" x1="198.266" y1="34.43" x2="134.987" y2="188.076" gradientUnits="userSpaceOnUse">
<stop stop-color="#656C94"/>
<stop offset="1" stop-color="#2A3037"/>
</linearGradient>
<linearGradient id="paint2_linear_8_85" x1="-9.42081" y1="-10.3595" x2="201.844" y2="92.5705" gradientUnits="userSpaceOnUse">
<stop stop-color="white"/>
<stop offset="1" stop-color="white" stop-opacity="0"/>
</linearGradient>
<linearGradient id="paint3_linear_8_85" x1="-26.3385" y1="31.631" x2="82.4405" y2="84.629" gradientUnits="userSpaceOnUse">
<stop stop-color="white"/>
<stop offset="1" stop-color="white" stop-opacity="0"/>
</linearGradient>
</defs>
</svg>
