<svg width="280" height="150" viewBox="0 0 280 150" fill="none" xmlns="http://www.w3.org/2000/svg">
<mask id="mask0_8_79" style="mask-type:alpha" maskUnits="userSpaceOnUse" x="0" y="0" width="280" height="150">
<path d="M8 0H272C276.4 0 280 3.6 280 8V142C280 146.4 276.4 150 272 150H8C3.6 150 0 146.4 0 142V8C0 3.6 3.6 0 8 0Z" fill="url(#paint0_linear_8_79)"/>
</mask>
<g mask="url(#mask0_8_79)">
<path d="M7.99976 0H272C276.4 0 280 3.6 280 8V142C280 146.4 276.4 150 272 150H7.99976C3.59976 150 -0.000244141 146.4 -0.000244141 142V8C-0.000244141 3.6 3.59976 0 7.99976 0Z" fill="url(#paint1_linear_8_79)"/>
<path opacity="0.25" d="M140 43L245 96V150H140V43Z" fill="#0084F0"/>
<path opacity="0.25" d="M245 -10.6L140 88.1V150H245V-10.6Z" fill="#0084F0"/>
<path opacity="0.15" d="M-17.4001 6.3L-1.20014 -27L210 75.9L193.8 109.2L-17.4001 6.3Z" fill="url(#paint2_linear_8_79)"/>
<path opacity="0.15" d="M-29.2002 37.5L-23.5002 25.8L85.2998 78.8L79.5998 90.5L-29.2002 37.5Z" fill="url(#paint3_linear_8_79)"/>
<g opacity="0.3">
<path opacity="0.3" d="M285.134 105.425L284.963 104.956L284.634 105.076V105.425H285.134ZM285.134 116.446H284.634V116.797L284.965 116.916L285.134 116.446ZM292 118.921H292.5V118.569L292.169 118.45L292 118.921ZM292 122.498L291.821 122.965L292.5 123.224V122.498H292ZM265.695 112.453H265.195V112.797L265.516 112.92L265.695 112.453ZM265.695 109.418L265.516 108.951L265.195 109.074V109.418H265.695ZM292 99.3548H292.5V98.6282L291.821 98.8878L292 99.3548ZM292 102.914L292.171 103.383L292.5 103.263V102.914H292ZM282.28 115.398L282.109 115.868L282.78 116.111V115.398H282.28ZM282.28 106.455H282.78V105.741L282.109 105.985L282.28 106.455ZM269.977 110.935L269.805 110.466L268.513 110.936L269.806 111.405L269.977 110.935ZM284.634 105.425V116.446H285.634V105.425H284.634ZM284.965 116.916L291.83 119.391L292.169 118.45L285.304 115.975L284.965 116.916ZM291.5 118.921V122.498H292.5V118.921H291.5ZM292.178 122.031L265.873 111.986L265.516 112.92L291.821 122.965L292.178 122.031ZM266.195 112.453V109.418H265.195V112.453H266.195ZM265.873 109.885L292.178 99.8218L291.821 98.8878L265.516 108.951L265.873 109.885ZM291.5 99.3548V102.914H292.5V99.3548H291.5ZM291.828 102.444L284.963 104.956L285.306 105.895L292.171 103.383L291.828 102.444ZM282.78 115.398V106.455H281.78V115.398H282.78ZM282.109 105.985L269.805 110.466L270.148 111.405L282.451 106.925L282.109 105.985ZM269.806 111.405L282.109 115.868L282.45 114.928L270.147 110.465L269.806 111.405ZM281.702 92.345H281.202V92.845H281.702V92.345ZM292 92.345H292.5V91.845H292V92.345ZM292 95.8138V96.3138H292.5V95.8138H292ZM265.695 95.8138H265.195V96.3138H265.695V95.8138ZM267.899 79.3553L268.27 79.6905L268.271 79.6892L267.899 79.3553ZM279.642 79.3011L280.021 78.9743L280.02 78.9741L279.642 79.3011ZM278.865 92.345V92.845H279.365V92.345H278.865ZM277.564 81.8484L277.94 81.5185L277.938 81.516L277.564 81.8484ZM268.549 85.9134L268.049 85.9029V85.9134H268.549ZM268.549 92.345H268.049V92.845H268.549V92.345ZM281.702 92.845H292V91.845H281.702V92.845ZM291.5 92.345V95.8138H292.5V92.345H291.5ZM292 95.3138H265.695V96.3138H292V95.3138ZM266.195 95.8138V86.1121H265.195V95.8138H266.195ZM266.195 86.1121C266.195 83.3177 266.907 81.1989 268.27 79.6905L267.528 79.02C265.952 80.7637 265.195 83.1494 265.195 86.1121H266.195ZM268.271 79.6892C269.636 78.1682 271.44 77.3983 273.734 77.3983V76.3983C271.187 76.3983 269.101 77.2664 267.527 79.0214L268.271 79.6892ZM273.734 77.3983C276.175 77.3983 277.993 78.1586 279.264 79.6281L280.02 78.9741C278.521 77.2398 276.4 76.3983 273.734 76.3983V77.3983ZM279.264 79.6279C280.531 81.0955 281.202 83.2439 281.202 86.1483H282.202C282.202 83.1027 281.499 80.6864 280.021 78.9743L279.264 79.6279ZM281.202 86.1483V92.345H282.202V86.1483H281.202ZM279.365 92.345V86.1121H278.365V92.345H279.365ZM279.365 86.1121C279.365 84.1855 278.915 82.6288 277.94 81.5186L277.189 82.1783C277.948 83.0434 278.365 84.3291 278.365 86.1121H279.365ZM277.938 81.516C276.941 80.3963 275.525 79.867 273.771 79.867V80.867C275.316 80.867 276.429 81.3253 277.191 82.1809L277.938 81.516ZM273.771 79.867C272.09 79.867 270.699 80.4019 269.65 81.5038L270.375 82.1931C271.206 81.3197 272.319 80.867 273.771 80.867V79.867ZM269.65 81.5038C268.604 82.6038 268.087 84.0901 268.049 85.9029L269.049 85.9239C269.083 84.292 269.542 83.0684 270.375 82.1931L269.65 81.5038ZM268.049 85.9134V92.345H269.049V85.9134H268.049ZM268.549 92.845H278.865V91.845H268.549V92.845ZM281.702 69.0032H281.202V69.5032H281.702V69.0032ZM292 69.0032H292.5V68.5032H292V69.0032ZM292 72.472V72.972H292.5V72.472H292ZM265.695 72.472H265.195V72.972H265.695V72.472ZM267.899 56.0135L268.27 56.3487L268.271 56.3474L267.899 56.0135ZM279.642 55.9593L280.021 55.6325L280.02 55.6323L279.642 55.9593ZM278.865 69.0032V69.5032H279.365V69.0032H278.865ZM277.564 58.5067L277.94 58.1767L277.938 58.1742L277.564 58.5067ZM268.549 62.5716L268.049 62.5611V62.5716H268.549ZM268.549 69.0032H268.049V69.5032H268.549V69.0032ZM281.702 69.5032H292V68.5032H281.702V69.5032ZM291.5 69.0032V72.472H292.5V69.0032H291.5ZM292 71.972H265.695V72.972H292V71.972ZM266.195 72.472V62.7703H265.195V72.472H266.195ZM266.195 62.7703C266.195 59.9759 266.907 57.8571 268.27 56.3487L267.528 55.6782C265.952 57.4219 265.195 59.8076 265.195 62.7703H266.195ZM268.271 56.3474C269.636 54.8264 271.44 54.0565 273.734 54.0565V53.0565C271.187 53.0565 269.101 53.9246 267.527 55.6796L268.271 56.3474ZM273.734 54.0565C276.175 54.0565 277.993 54.8168 279.264 56.2863L280.02 55.6323C278.521 53.898 276.4 53.0565 273.734 53.0565V54.0565ZM279.264 56.2861C280.531 57.7537 281.202 59.9021 281.202 62.8065H282.202C282.202 59.7609 281.499 57.3446 280.021 55.6325L279.264 56.2861ZM281.202 62.8065V69.0032H282.202V62.8065H281.202ZM279.365 69.0032V62.7703H278.365V69.0032H279.365ZM279.365 62.7703C279.365 60.8437 278.915 59.287 277.94 58.1768L277.189 58.8366C277.948 59.7016 278.365 60.9873 278.365 62.7703H279.365ZM277.938 58.1742C276.941 57.0545 275.525 56.5252 273.771 56.5252V57.5252C275.316 57.5252 276.429 57.9835 277.191 58.8391L277.938 58.1742ZM273.771 56.5252C272.09 56.5252 270.699 57.0601 269.65 58.162L270.375 58.8513C271.206 57.9779 272.319 57.5252 273.771 57.5252V56.5252ZM269.65 58.162C268.604 59.262 268.087 60.7483 268.049 62.5611L269.049 62.5821C269.083 60.9503 269.542 59.7266 270.375 58.8513L269.65 58.162ZM268.049 62.5716V69.0032H269.049V62.5716H268.049ZM268.549 69.5032H278.865V68.5032H268.549V69.5032ZM265.695 30.6121V30.1121H265.195V30.6121H265.695ZM283.581 30.6121L283.583 30.1121H283.581V30.6121ZM289.669 32.9608L289.318 33.317L289.32 33.3184L289.669 32.9608ZM292.325 39.2479L292.824 39.2283L292.824 39.2199L292.823 39.2116L292.325 39.2479ZM292.361 40.1693H292.861V40.1594L292.86 40.1497L292.361 40.1693ZM290.03 47.0526L290.4 47.3888L290.03 47.0526ZM283.617 49.6541V50.1541L283.621 50.1541L283.617 49.6541ZM265.695 49.6541H265.195V50.1541H265.695V49.6541ZM265.695 46.2215V45.7215H265.195V46.2215H265.695ZM287.953 44.6497L288.304 45.0053L288.306 45.0033L287.953 44.6497ZM287.953 35.6707L287.599 36.0243L287.601 36.0263L287.953 35.6707ZM265.695 34.0989H265.195V34.5989H265.695V34.0989ZM265.695 31.1121H283.581V30.1121H265.695V31.1121ZM283.578 31.1121C285.946 31.1236 287.845 31.8662 289.318 33.317L290.02 32.6045C288.338 30.9479 286.177 30.1247 283.583 30.1121L283.578 31.1121ZM289.32 33.3184C290.793 34.7581 291.64 36.73 291.826 39.2841L292.823 39.2116C292.624 36.4662 291.701 34.2468 290.018 32.6031L289.32 33.3184ZM291.825 39.2675L291.861 40.1888L292.86 40.1497L292.824 39.2283L291.825 39.2675ZM291.861 40.1693C291.861 42.9554 291.111 45.1192 289.66 46.7163L290.4 47.3888C292.057 45.5653 292.861 43.1403 292.861 40.1693H291.861ZM289.66 46.7163C288.217 48.305 286.222 49.131 283.612 49.1541L283.621 50.1541C286.455 50.129 288.736 49.2207 290.4 47.3888L289.66 46.7163ZM283.617 49.1541H265.695V50.1541H283.617V49.1541ZM266.195 49.6541V46.2215H265.195V49.6541H266.195ZM265.695 46.7215H283.508V45.7215H265.695V46.7215ZM283.508 46.7215C285.505 46.7215 287.127 46.1694 288.304 45.0053L287.601 44.2942C286.659 45.2257 285.318 45.7215 283.508 45.7215V46.7215ZM288.306 45.0033C289.474 43.8353 290.024 42.1984 290.024 40.1693H289.024C289.024 42.0183 288.527 43.3684 287.599 44.2962L288.306 45.0033ZM290.024 40.1693C290.024 38.1184 289.475 36.4729 288.304 35.3151L287.601 36.0263C288.526 36.9402 289.024 38.2937 289.024 40.1693H290.024ZM288.306 35.3172C287.14 34.1509 285.523 33.5989 283.526 33.5989V34.5989C285.336 34.5989 286.67 35.0948 287.599 36.0243L288.306 35.3172ZM283.526 33.5989H265.695V34.5989H283.526V33.5989ZM266.195 34.0989V30.6121H265.195V34.0989H266.195ZM292 21.4163H292.5V20.9163H292V21.4163ZM292 24.8851V25.3851H292.5V24.8851H292ZM265.695 24.8851H265.195V25.3851H265.695V24.8851ZM265.695 21.4163V20.9163H265.195V21.4163H265.695ZM291.5 21.4163V24.8851H292.5V21.4163H291.5ZM292 24.3851H265.695V25.3851H292V24.3851ZM266.195 24.8851V21.4163H265.195V24.8851H266.195ZM265.695 21.9163H292V20.9163H265.695V21.9163Z" fill="white"/>
</g>
</g>
<defs>
<linearGradient id="paint0_linear_8_79" x1="271.963" y1="15.095" x2="142.475" y2="220.079" gradientUnits="userSpaceOnUse">
<stop stop-color="#26F1EB"/>
<stop offset="1" stop-color="#2075FC"/>
</linearGradient>
<linearGradient id="paint1_linear_8_79" x1="271.962" y1="15.095" x2="142.474" y2="220.079" gradientUnits="userSpaceOnUse">
<stop stop-color="#26F1EB"/>
<stop offset="1" stop-color="#2075FC"/>
</linearGradient>
<linearGradient id="paint2_linear_8_79" x1="-9.34581" y1="-10.397" x2="201.919" y2="92.533" gradientUnits="userSpaceOnUse">
<stop stop-color="white"/>
<stop offset="1" stop-color="white" stop-opacity="0"/>
</linearGradient>
<linearGradient id="paint3_linear_8_79" x1="-26.3685" y1="31.6148" x2="82.4105" y2="84.6128" gradientUnits="userSpaceOnUse">
<stop stop-color="white"/>
<stop offset="1" stop-color="white" stop-opacity="0"/>
</linearGradient>
</defs>
</svg>
